#!OML:ASF H:\charlestonDancing\Project 1\Capture day 1\Session 1\femaleDancer.ASF
:FULLY-SPECIFIED
:DEGREES
157
root -14.7758 18.1757 0.503436 353.758 -91.7559 -345.494
lowerback 16.7084 -1.25397 6.78596
upperback 2.7404 -0.55033 0.858872
thorax -6.47312 -0.47703 -2.80061
lowerneck 2.8385 3.47778 7.53295
upperneck 11.9203 4.63685 -3.26477
head 3.70466 2.39508 -2.31246
rclavicle -4.77083e-015 1.98785e-014
rhumerus -21.7989 -1.91295 -72.4093
rradius 39.0577
rwrist 36.1607
rhand -35.8215 -40.2817
rfingers 7.12502
rthumb -8.93759 289.928
lclavicle -4.77083e-015 1.98785e-014
lhumerus -37.2776 -13.4455 78.8896
lradius 60.1256
lwrist -10.3459
lhand -34.7739 1.39022
lfingers 7.12502
lthumb -7.92655 31.2216
rfemur -16.1954 9.78089 22.6073
rtibia 34.8366
rfoot -15.9894 13.7489
rtoes -30.8478
lfemur -38.4535 -10.4476 -16.4092
ltibia 53.5192
lfoot 17.6722 -22.9938
ltoes 0.560239
158
root -14.6845 18.2094 0.522922 352.573 -91.7117 -343.844
lowerback 16.3314 -1.31715 6.69637
upperback 2.66575 -0.669001 0.871419
thorax -6.35907 -0.527851 -2.71334
lowerneck 2.69612 3.45882 7.88483
upperneck 12.169 4.61996 -3.54424
head 3.84414 2.39258 -2.47387
rclavicle 1.68967e-014 -3.37934e-014
rhumerus -22.749 -2.65456 -69.9065
rradius 38.8253
rwrist 37.6486
rhand -36.4655 -40.5084
rfingers 7.12502
rthumb -9.559 289.728
lclavicle 1.68967e-014 -3.37934e-014
lhumerus -36.7003 -17.1791 77.9289
lradius 61.0005
lwrist -16.0023
lhand -36.302 -1.52274
lfingers 7.12502
lthumb -9.40116 28.2476
rfemur -17.4755 15.5209 20.9365
rtibia 35.037
rfoot -15.9039 19.3897
rtoes -29.0294
lfemur -38.4825 -15.4804 -12.9348
ltibia 55.7756
lfoot 12.69 -22.5784
ltoes -5.69848
159
root -14.6006 18.212 0.543529 371.09 -91.8411 -361.824
lowerback 15.7808 -1.36029 5.88791
upperback 2.53588 -0.893876 0.7614
thorax -6.21173 -0.613451 -2.33149
lowerneck 2.77162 3.61161 7.72174
upperneck 12.16 4.81342 -3.40103
head 3.82777 2.4846 -2.38889
rclavicle 8.54774e-015 -1.59028e-015
rhumerus -23.5886 -3.0818 -67.2672
rradius 38.1739
rwrist 38.9538
rhand -36.9161 -40.7853
rfingers 7.12502
rthumb -9.99367 289.472
lclavicle 8.54774e-015 -1.59028e-015
lhumerus -36.4193 -20.3487 76.5791
lradius 62.176
lwrist -20.0247
lhand -37.6422 -3.05537
lfingers 7.12502
lthumb -10.6942 26.6525
rfemur -19.2143 20.6236 18.5383
rtibia 35.3149
rfoot -16.0987 24.8996
rtoes -28.1286
lfemur -38.4549 -20.0235 -10.3336
ltibia 57.9709
lfoot 12.7121 -22.6649
ltoes -6.33536
160
root -14.5211 18.1901 0.565864 361.494 -91.9982 -351.919
lowerback 15.3905 -1.50268 5.92948
upperback 2.42407 -1.08515 0.873219
thorax -6.13281 -0.704112 -2.20019
lowerneck 2.85552 3.77193 7.66494
upperneck 12.2354 5.02779 -3.40063
head 3.85112 2.58676 -2.37298
rclavicle -2.18663e-015 2.82274e-014
rhumerus -24.4462 -3.58874 -64.4756
rradius 37.1794
rwrist 40.0184
rhand -37.1549 -40.9683
rfingers 7.12502
rthumb -10.224 289.3
lclavicle -2.18663e-015 2.82274e-014
lhumerus -36.3787 -23.2178 74.9547
lradius 63.4495
lwrist -22.3684
lhand -38.3476 -3.62428
lfingers 7.12502
lthumb -11.3745 26.0472
rfemur -20.7083 24.7239 17.4915
rtibia 35.618
rfoot -21.4827 26.9197
rtoes -38.0161
lfemur -38.1482 -23.8097 -7.2301
ltibia 60.1204
lfoot 16.9146 -23.134
ltoes -0.788127
161
root -14.4504 18.1562 0.582949 365.697 -92.0289 -355.907
lowerback 14.8965 -1.62834 5.46918
upperback 2.33099 -1.34792 0.866832
thorax -5.974 -0.81681 -1.90165
lowerneck 2.89324 3.86603 7.76647
upperneck 12.4109 5.15815 -3.51165
head 3.92502 2.65058 -2.42712
rclavicle -3.37934e-014 4.49253e-014
rhumerus -25.3352 -4.62876 -61.4221
rradius 35.8907
rwrist 41.5643
rhand -36.3053 -41.383
rfingers 7.12502
rthumb -9.40434 288.847
lclavicle -3.37934e-014 4.49253e-014
lhumerus -36.4174 -25.8071 73.138
lradius 64.7068
lwrist -23.0683
lhand -38.5279 -3.91864
lfingers 7.12502
lthumb -11.5484 25.7432
rfemur -21.633 26.4039 16.6982
rtibia 35.8774
rfoot -19.4365 28.521
rtoes -33.4382
lfemur -37.7289 -27.2476 -5.129
ltibia 62.1284
lfoot 20.8247 -24.2064
ltoes -5.16454
162
root -14.384 18.0968 0.6058 374.46 -91.8304 -364.731
lowerback 14.538 -1.80249 5.04391
upperback 2.3103 -1.66548 0.800543
thorax -5.81371 -0.958374 -1.67687
lowerneck 3.05908 3.9163 7.69581
upperneck 12.4245 5.21391 -3.34165
head 3.89231 2.67913 -2.35585
rclavicle -7.55382e-015 3.18055e-015
rhumerus -26.2976 -5.80572 -58.2943
rradius 34.1038
rwrist 41.5794
rhand -36.5891 -41.2256
rfingers 7.12502
rthumb -9.67819 289.017
lclavicle -7.55382e-015 3.18055e-015
lhumerus -36.2336 -28.1564 71.2016
lradius 65.6021
lwrist -22.414
lhand -38.5009 -3.97066
lfingers 7.12502
lthumb -11.5223 25.6926
rfemur -21.5104 25.9925 16.6504
rtibia 35.9496
rfoot -17.6493 27.5115
rtoes -27.9224
lfemur -36.9624 -30.4269 -3.86692
ltibia 64.0239
lfoot 26.8747 -20.3895
ltoes 3.12029
163
root -14.3257 18.0153 0.614823 331.273 -91.7859 -322.116
lowerback 14.6315 -2.04942 6.02918
upperback 2.40236 -1.82339 1.19855
thorax -5.79273 -1.05489 -1.77675
lowerneck 3.26659 3.92817 7.54129
upperneck 12.5491 5.20977 -3.10518
head 3.88123 2.67578 -2.24929
rclavicle -9.34288e-015 -5.56597e-015
rhumerus -27.402 -7.70309 -54.7522
rradius 32.2246
rwrist 42.699
rhand -35.6907 -41.6572
rfingers 7.12502
rthumb -8.81135 288.547
lclavicle -9.34288e-015 -5.56597e-015
lhumerus -35.8251 -30.2121 69.2433
lradius 65.8725
lwrist -21.003
lhand -38.2898 -3.65945
lfingers 7.12502
lthumb -11.3188 26.0151
rfemur -20.3394 24.4586 19.0141
rtibia 35.7924
rfoot -17.041 25.7411
rtoes -21.935
lfemur -35.2487 -32.8138 -1.78086
ltibia 65.7567
lfoot 29.9665 -17.7068
ltoes 0.887328
164
root -14.2765 17.946 0.621916 304.194 -92.3644 -295.797
lowerback 14.9379 -2.263 6.84507
upperback 2.48976 -1.94751 1.58501
thorax -5.88791 -1.13535 -1.7913
lowerneck 3.55941 3.94003 7.18864
upperneck 12.6905 5.19182 -2.70719
head 3.84425 2.66115 -2.05346
rclavicle 4.69132e-014 -3.18055e-014
rhumerus -28.6187 -10.1851 -50.7584
rradius 30.1303
rwrist 44.5732
rhand -34.8874 -42.3865
rfingers 7.12502
rthumb -8.03605 287.786
lclavicle 4.69132e-014 -3.18055e-014
lhumerus -35.3116 -31.677 67.3964
lradius 65.6439
lwrist -19.6899
lhand -37.9101 -3.09183
lfingers 7.12502
lthumb -10.9525 26.6025
rfemur -18.8233 23.0122 21.1052
rtibia 35.216
rfoot -14.5109 24.6406
rtoes -8.54394
lfemur -32.7037 -34.6603 -0.823361
ltibia 67.09
lfoot 30.5225 -15.3249
ltoes -4.04045
165
root -14.2316 17.8887 0.629727 289.86 -93.3104 -282.349
lowerback 15.4718 -2.47952 7.72464
upperback 2.60672 -2.04096 2.04827
thorax -6.07252 -1.20656 -1.75509
lowerneck 3.58813 3.9415 7.09879
upperneck 13.1403 5.19594 -2.88412
head 4.00443 2.65089 -2.0988
rclavicle 3.49861e-014 -1.27222e-014
rhumerus -29.8434 -13.1243 -46.41
rradius 28.0521
rwrist 47.2967
rhand -34.3456 -42.8231
rfingers 7.12502
rthumb -7.51314 287.33
lclavicle 3.49861e-014 -1.27222e-014
lhumerus -34.7708 -32.2646 65.6634
lradius 65.042
lwrist -18.9974
lhand -37.4591 -2.35665
lfingers 7.12502
lthumb -10.5175 27.3602
rfemur -17.3064 21.4685 23.0831
rtibia 34.4878
rfoot -16.2128 23.8289
rtoes -11.5733
lfemur -29.6168 -35.9076 -0.550204
ltibia 67.9545
lfoot 30.2965 -14.7049
ltoes -6.93438
166
root -14.1802 17.8479 0.656399 280.024 -96.3265 -272.273
lowerback 15.2329 -2.84305 10.8704
upperback 2.42161 -1.99935 3.00592
thorax -6.19647 -1.26861 -2.48814
lowerneck 3.56898 4.03435 6.84647
upperneck 13.4327 5.31741 -2.96609
head 4.11372 2.69391 -2.07765
rclavicle 1.39149e-014 -5.1684e-015
rhumerus -31.1073 -16.4311 -42.0067
rradius 26.3516
rwrist 50.7973
rhand -33.7208 -42.752
rfingers 7.12502
rthumb -6.91005 287.381
lclavicle 1.39149e-014 -5.1684e-015
lhumerus -34.3341 -31.9207 63.9826
lradius 64.1561
lwrist -18.7416
lhand -37.1185 -1.99386
lfingers 7.12502
lthumb -10.1889 27.7394
rfemur -17.328 19.8101 26.5702
rtibia 33.915
rfoot -17.5595 23.826
rtoes -14.6564
lfemur -28.0108 -35.7439 2.39991
ltibia 68.4076
lfoot 32.3542 -15.43
ltoes -1.59799
167
root -14.1357 17.8246 0.679683 284.561 -97.3074 -276.257
lowerback 14.939 -2.75858 11.5992
upperback 2.1528 -1.77676 3.30513
thorax -6.30895 -1.18989 -2.61794
lowerneck 3.54839 4.14447 6.72657
upperneck 13.5893 5.47092 -3.08413
head 4.18363 2.75812 -2.09171
rclavicle 4.96962e-015 1.66979e-014
rhumerus -32.6912 -19.9328 -37.7978
rradius 25.2815
rwrist 54.6849
rhand -33.2114 -42.7972
rfingers 7.12502
rthumb -6.41832 287.32
lclavicle 4.96962e-015 1.66979e-014
lhumerus -34.1088 -30.8628 62.358
lradius 63.1763
lwrist -18.5932
lhand -37.0932 -1.86559
lfingers 7.12502
lthumb -10.1645 27.8689
rfemur -18.1767 19.8976 27.4137
rtibia 33.9983
rfoot -20.163 22.3845
rtoes -22.8598
lfemur -26.2428 -34.3531 2.36819
ltibia 68.183
lfoot 34.7929 -15.4883
ltoes 3.48556
168
root -14.0906 17.837 0.725249 292.476 -96.6759 -283.334
lowerback 14.1812 -2.61012 11.0073
upperback 2.03057 -1.77125 2.96119
thorax -6.01892 -1.15811 -2.68566
lowerneck 3.48412 4.29036 6.80596
upperneck 13.4287 5.68007 -3.19123
head 4.15857 2.86251 -2.13508
rclavicle 6.55989e-015 3.53837e-014
rhumerus -34.2893 -23.7303 -34.0911
rradius 24.7505
rwrist 58.501
rhand -33.4993 -43.0183
rfingers 7.12502
rthumb -6.69628 287.108
lclavicle 6.55989e-015 3.53837e-014
lhumerus -33.6447 -29.0575 60.5451
lradius 62.1353
lwrist -18.0618
lhand -37.1472 -1.42256
lfingers 7.12502
lthumb -10.2166 28.3093
rfemur -19.6477 19.9531 26.2013
rtibia 34.6541
rfoot -19.5684 21.7177
rtoes -21.8474
lfemur -24.723 -32.4098 0.0348102
ltibia 67.3751
lfoot 36.2285 -15.9753
ltoes 2.39082
169
root -14.0417 17.8787 0.765047 310.575 -95.3092 -300.685
lowerback 13.6003 -2.39081 9.08896
upperback 1.97709 -1.84415 2.22652
thorax -5.73596 -1.13328 -2.41166
lowerneck 3.59733 4.49467 6.84664
upperneck 13.0371 5.96462 -3.15403
head 4.01297 3.00807 -2.12244
rclavicle -2.37548e-014 -1.11319e-014
rhumerus -35.482 -26.2272 -31.8294
rradius 24.6664
rwrist 59.7977
rhand -33.1571 -43.7984
rfingers 7.12502
rthumb -6.36588 286.317
lclavicle -2.37548e-014 -1.11319e-014
lhumerus -33.2598 -26.6023 58.8171
lradius 60.9148
lwrist -16.8431
lhand -37.2653 -0.799415
lfingers 7.12502
lthumb -10.3306 28.9269
rfemur -21.4455 20.3683 23.7783
rtibia 36.1025
rfoot -17.7187 20.6986
rtoes -18.2711
lfemur -23.03 -29.5531 -4.00401
ltibia 65.9231
lfoot 36.6879 -12.9688
ltoes 4.78588
170
root -13.9851 17.9358 0.795011 331.329 -95.0515 -321.086
lowerback 13.6848 -2.20132 7.61062
upperback 1.96542 -1.81786 1.55764
thorax -5.77213 -1.08759 -2.30084
lowerneck 3.73852 4.65262 6.86085
upperneck 12.6691 6.17314 -2.98676
head 3.85962 3.11818 -2.06427
rclavicle 1.49089e-015 -2.38542e-015
rhumerus -36.6083 -27.9687 -30.4179
rradius 24.6326
rwrist 59.7511
rhand -33.6699 -44.9359
rfingers 7.12502
rthumb -6.86093 285.195
lclavicle 1.49089e-015 -2.38542e-015
lhumerus -32.9728 -23.9585 57.363
lradius 59.5151
lwrist -15.0012
lhand -37.6438 -0.0279403
lfingers 7.12502
lthumb -10.6957 29.6798
rfemur -22.8575 20.7211 22.3348
rtibia 37.9416
rfoot -15.8788 18.8082
rtoes -15.6689
lfemur -21.0579 -25.647 -7.63946
ltibia 64.0652
lfoot 36.5309 -12.9339
ltoes -0.919541
